<?xml version="1.0" encoding="utf-8"?>
<!-- Generator: Adobe Illustrator 24.0.2, SVG Export Plug-In . SVG Version: 6.00 Build 0)  -->
<svg version="1.0" xmlns="http://www.w3.org/2000/svg" xmlns:xlink="http://www.w3.org/1999/xlink" x="0px" y="0px"
	 viewBox="0 0 1140 700" style="enable-background:new 0 0 1140 700;" xml:space="preserve">
<style type="text/css">
	.st0{opacity:0.7;}
	.st1{fill:none;stroke:#FCEE21;stroke-width:2;stroke-miterlimit:10;}
	.st2{fill:#FFFF00;}
</style>
<g id="Layer_4">
	<path class="st0" d="M1140,700H0V0h1140V700z M687,225H446v340h241V225z M1129.19,628H901v60.21h228.19V628z M771,602H348v53h423
		V602z M771,178v477h53V178H771z M372,144h-60v60h60V144z M675,503l-47-47l-47,47l47,47L675,503z"/>
</g>
<g id="Layer_2">
	<line class="st1" x1="834.67" y1="277" x2="834.67" y2="517"/>
	<g>
		<path class="st2" d="M864.85,55.8v16.18h-2.09V57.55h-7.51v14.43h-2.09V55.8H864.85z"/>
		<path class="st2" d="M869.6,66.55c0.05,2.86,1.87,4.03,3.98,4.03c1.51,0,2.42-0.26,3.22-0.6l0.36,1.51
			c-0.74,0.34-2.02,0.72-3.86,0.72c-3.58,0-5.71-2.35-5.71-5.86c0-3.5,2.06-6.26,5.45-6.26c3.79,0,4.8,3.34,4.8,5.47
			c0,0.43-0.05,0.77-0.07,0.98H869.6z M875.8,65.04c0.02-1.34-0.55-3.43-2.93-3.43c-2.14,0-3.07,1.97-3.24,3.43H875.8z"/>
		<path class="st2" d="M880.45,64.15c0-1.49-0.05-2.69-0.1-3.79h1.9l0.1,1.99h0.05c0.86-1.42,2.23-2.26,4.13-2.26
			c2.81,0,4.92,2.38,4.92,5.9c0,4.18-2.54,6.24-5.28,6.24c-1.54,0-2.88-0.67-3.58-1.82h-0.05v6.31h-2.09V64.15z M882.54,67.25
			c0,0.31,0.05,0.6,0.1,0.86c0.38,1.46,1.66,2.47,3.17,2.47c2.23,0,3.53-1.82,3.53-4.49c0-2.33-1.22-4.32-3.46-4.32
			c-1.44,0-2.78,1.03-3.19,2.62c-0.07,0.26-0.14,0.58-0.14,0.86V67.25z"/>
		<path class="st2" d="M895.28,66.55c0.05,2.86,1.87,4.03,3.98,4.03c1.51,0,2.42-0.26,3.22-0.6l0.36,1.51
			c-0.74,0.34-2.02,0.72-3.86,0.72c-3.58,0-5.71-2.35-5.71-5.86c0-3.5,2.06-6.26,5.45-6.26c3.79,0,4.8,3.34,4.8,5.47
			c0,0.43-0.05,0.77-0.07,0.98H895.28z M901.48,65.04c0.02-1.34-0.55-3.43-2.93-3.43c-2.14,0-3.07,1.97-3.24,3.43H901.48z"/>
		<path class="st2" d="M915.2,60.36v10.03l1.2,0.02l-0.12,5.26h-1.66l-0.1-3.7h-8.04l-0.1,3.7h-1.66l-0.1-5.26l0.98-0.02
			c0.5-0.74,0.89-1.54,1.15-2.38c0.46-1.44,0.67-3,0.67-4.63v-3.02H915.2z M909.32,63.89c0,1.54-0.22,3.02-0.6,4.32
			c-0.24,0.79-0.58,1.51-0.94,2.16h5.35v-8.4h-3.82V63.89z"/>
		<path class="st2" d="M918.87,60.5c0.82-0.14,2.33-0.26,3.7-0.26c1.94,0,5.16,0.31,5.16,2.9c0,1.44-1.1,2.33-2.42,2.62v0.05
			c1.7,0.24,2.95,1.2,2.95,2.88c0,3.05-3.84,3.43-6.12,3.43c-1.3,0-2.64-0.1-3.26-0.14V60.5z M920.87,70.58
			c0.6,0.07,1.03,0.1,1.7,0.1c1.42,0,3.53-0.34,3.53-2.02c0-1.68-1.68-2.04-3.7-2.04h-1.54V70.58z M920.89,65.23h1.58
			c1.56,0,3.17-0.46,3.17-1.82c0-1.15-1.01-1.7-3.12-1.7c-0.7,0-1.13,0.05-1.63,0.1V65.23z"/>
		<path class="st2" d="M932.87,60.36v4.9c0,1.85-0.02,3-0.12,4.66l0.07,0.02c0.7-1.42,1.1-2.23,1.87-3.58l3.62-6h2.47v11.62h-2.02
			v-4.92c0-1.9,0.05-2.88,0.14-4.75h-0.07c-0.74,1.49-1.25,2.42-1.92,3.6c-1.1,1.8-2.38,4.03-3.63,6.07h-2.42V60.36H932.87z"/>
		<path class="st2" d="M951.3,60.36v1.7h-5.04v9.91h-2.09V60.36H951.3z"/>
		<path class="st2" d="M959.55,71.98l-0.17-1.46h-0.07c-0.65,0.91-1.9,1.73-3.55,1.73c-2.35,0-3.55-1.66-3.55-3.34
			c0-2.81,2.5-4.34,6.98-4.32v-0.24c0-0.96-0.26-2.69-2.64-2.69c-1.08,0-2.21,0.34-3.02,0.86l-0.48-1.39
			c0.96-0.62,2.35-1.03,3.82-1.03c3.55,0,4.42,2.42,4.42,4.75v4.34c0,1.01,0.05,1.99,0.19,2.78H959.55z M959.24,66.05
			c-2.3-0.05-4.92,0.36-4.92,2.62c0,1.37,0.91,2.02,1.99,2.02c1.51,0,2.47-0.96,2.81-1.94c0.07-0.22,0.12-0.46,0.12-0.67V66.05z"/>
		<path class="st2" d="M966.63,60.36v4.9c0,1.85-0.02,3-0.12,4.66l0.07,0.02c0.7-1.42,1.1-2.23,1.87-3.58l3.62-6h2.47v11.62h-2.02
			v-4.92c0-1.9,0.05-2.88,0.14-4.75h-0.07c-0.74,1.49-1.25,2.42-1.92,3.6c-1.1,1.8-2.38,4.03-3.63,6.07h-2.42V60.36H966.63z
			 M968,55.63c0.07,1.03,0.58,1.82,1.54,1.82c1.03,0,1.51-0.77,1.63-1.82h1.51c-0.1,1.97-1.34,2.98-3.19,2.98
			c-2.11,0-2.93-1.32-3.02-2.98H968z"/>
		<path class="st2" d="M985.76,60.36v1.68h-3.62v9.94h-2.09v-9.94h-3.63v-1.68H985.76z"/>
		<path class="st2" d="M988.47,66.55c0.05,2.86,1.87,4.03,3.98,4.03c1.51,0,2.42-0.26,3.22-0.6l0.36,1.51
			c-0.74,0.34-2.02,0.72-3.86,0.72c-3.58,0-5.71-2.35-5.71-5.86c0-3.5,2.06-6.26,5.45-6.26c3.79,0,4.8,3.34,4.8,5.47
			c0,0.43-0.05,0.77-0.07,0.98H988.47z M994.67,65.04c0.02-1.34-0.55-3.43-2.93-3.43c-2.14,0-3.07,1.97-3.24,3.43H994.67z"/>
		<path class="st2" d="M997.95,74.93c0.53-1.42,1.18-3.98,1.44-5.74l2.35-0.24c-0.55,2.04-1.61,4.7-2.28,5.83L997.95,74.93z"/>
		<path class="st2" d="M855.01,87.36v3.82c0,1.46,0.55,2.47,2.4,2.47c0.91,0,1.85-0.34,2.5-0.82v-5.47H862v11.62h-2.09v-4.66h-0.05
			c-0.79,0.53-2.04,0.89-3.14,0.89c-2.21,0-3.82-1.13-3.82-3.79v-4.06H855.01z"/>
		<path class="st2" d="M873.23,87.36v1.68h-3.62v9.94h-2.09v-9.94h-3.63v-1.68H873.23z"/>
		<path class="st2" d="M885.28,93.07c0,4.3-2.98,6.17-5.78,6.17c-3.14,0-5.57-2.3-5.57-5.98c0-3.89,2.54-6.17,5.76-6.17
			C883.02,87.1,885.28,89.52,885.28,93.07z M876.06,93.19c0,2.54,1.46,4.46,3.53,4.46c2.02,0,3.53-1.9,3.53-4.51
			c0-1.97-0.98-4.46-3.48-4.46C877.14,88.68,876.06,90.98,876.06,93.19z"/>
		<path class="st2" d="M896.72,83.42c-0.6,0.22-1.66,0.41-2.42,0.53c-1.87,0.29-3.24,0.91-4.13,2.18c-0.74,1.06-1.18,2.62-1.27,3.84
			h0.07c0.74-1.68,2.38-2.62,4.03-2.62c2.86,0,4.94,2.04,4.94,5.74c0,3.79-1.97,6.14-5.38,6.14c-4.08,0-5.42-3.91-5.42-7.78
			c0-2.64,0.55-4.8,1.8-6.43c1.13-1.61,2.74-2.35,4.99-2.74c0.94-0.14,2.09-0.34,2.88-0.62L896.72,83.42z M892.57,88.92
			c-1.25,0-2.14,0.65-2.62,1.58c-0.38,0.7-0.58,1.54-0.58,2.47c0,1.92,0.94,4.68,3.24,4.68c2.33,0,3.19-2.26,3.19-4.39
			C895.81,91.37,895.07,88.92,892.57,88.92z"/>
		<path class="st2" d="M902.65,87.36v3.96c0.46-0.1,1.13-0.14,1.9-0.14c2.5,0,5.02,1.03,5.02,3.89c0,1.22-0.46,2.06-1.2,2.69
			c-1.27,1.08-3.14,1.34-4.68,1.34c-1.18,0-2.26-0.07-3.12-0.17V87.36H902.65z M902.65,97.51c0.41,0.05,0.86,0.1,1.46,0.1
			c1.61,0,3.36-0.67,3.36-2.47c0-1.87-1.68-2.45-3.26-2.45c-0.6,0-1.13,0.05-1.56,0.12V97.51z M913.12,87.36v11.62h-2.09V87.36
			H913.12z"/>
		<path class="st2" d="M931.21,87.36v11.62h-2.11v-9.94h-5.4v9.94h-2.09V87.36H931.21z"/>
		<path class="st2" d="M945.16,93.07c0,4.3-2.98,6.17-5.78,6.17c-3.14,0-5.57-2.3-5.57-5.98c0-3.89,2.54-6.17,5.76-6.17
			C942.9,87.1,945.16,89.52,945.16,93.07z M935.94,93.19c0,2.54,1.46,4.46,3.53,4.46c2.02,0,3.53-1.9,3.53-4.51
			c0-1.97-0.98-4.46-3.48-4.46C937.02,88.68,935.94,90.98,935.94,93.19z"/>
		<path class="st2" d="M947.77,87.5c0.82-0.14,2.33-0.26,3.7-0.26c1.94,0,5.16,0.31,5.16,2.9c0,1.44-1.1,2.33-2.42,2.62v0.05
			c1.7,0.24,2.95,1.2,2.95,2.88c0,3.05-3.84,3.43-6.12,3.43c-1.3,0-2.64-0.1-3.26-0.14V87.5z M949.76,97.58
			c0.6,0.07,1.03,0.1,1.7,0.1c1.42,0,3.53-0.34,3.53-2.02c0-1.68-1.68-2.04-3.7-2.04h-1.54V97.58z M949.79,92.23h1.58
			c1.56,0,3.17-0.46,3.17-1.82c0-1.15-1.01-1.7-3.12-1.7c-0.7,0-1.13,0.05-1.63,0.1V92.23z"/>
		<path class="st2" d="M961,93.55c0.05,2.86,1.87,4.03,3.98,4.03c1.51,0,2.42-0.26,3.22-0.6l0.36,1.51
			c-0.74,0.34-2.02,0.72-3.86,0.72c-3.58,0-5.71-2.35-5.71-5.86c0-3.5,2.06-6.26,5.45-6.26c3.79,0,4.8,3.34,4.8,5.47
			c0,0.43-0.05,0.77-0.07,0.98H961z M967.19,92.04c0.02-1.34-0.55-3.43-2.93-3.43c-2.14,0-3.07,1.97-3.24,3.43H967.19z"/>
		<path class="st2" d="M971.84,91.15c0-1.49-0.05-2.69-0.1-3.79h1.9l0.1,1.99h0.05c0.86-1.42,2.23-2.26,4.13-2.26
			c2.81,0,4.92,2.38,4.92,5.9c0,4.18-2.54,6.24-5.28,6.24c-1.54,0-2.88-0.67-3.58-1.82h-0.05v6.31h-2.09V91.15z M973.93,94.25
			c0,0.31,0.05,0.6,0.1,0.86c0.38,1.46,1.66,2.47,3.17,2.47c2.23,0,3.53-1.82,3.53-4.49c0-2.33-1.22-4.32-3.46-4.32
			c-1.44,0-2.78,1.03-3.19,2.62c-0.07,0.26-0.14,0.58-0.14,0.86V94.25z"/>
		<path class="st2" d="M987.54,87.36v4.68h5.52v-4.68h2.09v11.62h-2.09v-5.26h-5.52v5.26h-2.09V87.36H987.54z"/>
		<path class="st2" d="M999.27,87.36l2.54,6.86c0.26,0.77,0.55,1.68,0.74,2.38h0.05c0.22-0.7,0.46-1.58,0.74-2.42l2.3-6.82h2.23
			l-3.17,8.28c-1.51,3.98-2.54,6.02-3.98,7.27c-1.03,0.91-2.06,1.27-2.59,1.37l-0.53-1.78c0.53-0.17,1.22-0.5,1.85-1.03
			c0.58-0.46,1.3-1.27,1.78-2.35c0.1-0.22,0.17-0.38,0.17-0.5c0-0.12-0.05-0.29-0.14-0.55l-4.3-10.71H999.27z"/>
		<path class="st2" d="M1018.19,87.36v1.68h-3.62v9.94h-2.09v-9.94h-3.63v-1.68H1018.19z"/>
		<path class="st2" d="M1022.07,87.36v3.94c0.48-0.1,1.3-0.12,1.92-0.12c2.62,0,5.38,0.82,5.38,3.91c0,1.2-0.48,2.04-1.22,2.66
			c-1.27,1.08-3.34,1.34-5.04,1.34c-1.18,0-2.26-0.07-3.12-0.17V87.36H1022.07z M1022.07,97.51c0.41,0.05,0.86,0.1,1.56,0.1
			c1.58,0,3.62-0.53,3.62-2.47c0-2.02-2.11-2.45-3.67-2.45c-0.55,0-1.03,0.05-1.51,0.12V97.51z"/>
	</g>
	<line class="st1" x1="834.75" y1="517" x2="818.5" y2="500.75"/>
	<line class="st1" x1="834.67" y1="517" x2="850.92" y2="500.75"/>
	<g>
		<path class="st2" d="M100.97,528.8v16.18h-2.09v-14.43h-7.51v14.43h-2.09V528.8H100.97z"/>
		<path class="st2" d="M105.72,539.55c0.05,2.86,1.87,4.03,3.98,4.03c1.51,0,2.42-0.26,3.22-0.6l0.36,1.51
			c-0.74,0.34-2.02,0.72-3.86,0.72c-3.58,0-5.71-2.35-5.71-5.86c0-3.5,2.06-6.26,5.45-6.26c3.79,0,4.8,3.34,4.8,5.47
			c0,0.43-0.05,0.77-0.07,0.98H105.72z M111.91,538.04c0.02-1.34-0.55-3.43-2.93-3.43c-2.14,0-3.07,1.97-3.24,3.43H111.91z"/>
		<path class="st2" d="M116.57,537.15c0-1.49-0.05-2.69-0.1-3.79h1.9l0.1,1.99h0.05c0.86-1.42,2.23-2.26,4.13-2.26
			c2.81,0,4.92,2.38,4.92,5.9c0,4.18-2.54,6.24-5.28,6.24c-1.54,0-2.88-0.67-3.58-1.82h-0.05v6.31h-2.09V537.15z M118.66,540.25
			c0,0.31,0.05,0.6,0.1,0.86c0.38,1.46,1.66,2.47,3.17,2.47c2.23,0,3.53-1.82,3.53-4.49c0-2.33-1.22-4.32-3.46-4.32
			c-1.44,0-2.78,1.03-3.19,2.62c-0.07,0.26-0.14,0.58-0.14,0.86V540.25z"/>
		<path class="st2" d="M131.4,539.55c0.05,2.86,1.87,4.03,3.98,4.03c1.51,0,2.42-0.26,3.22-0.6l0.36,1.51
			c-0.74,0.34-2.02,0.72-3.86,0.72c-3.58,0-5.71-2.35-5.71-5.86c0-3.5,2.06-6.26,5.45-6.26c3.79,0,4.8,3.34,4.8,5.47
			c0,0.43-0.05,0.77-0.07,0.98H131.4z M137.59,538.04c0.02-1.34-0.55-3.43-2.93-3.43c-2.14,0-3.07,1.97-3.24,3.43H137.59z"/>
		<path class="st2" d="M151.32,533.36v10.03l1.2,0.02l-0.12,5.26h-1.66l-0.1-3.7h-8.04l-0.1,3.7h-1.66l-0.1-5.26l0.98-0.02
			c0.5-0.74,0.89-1.54,1.15-2.38c0.46-1.44,0.67-3,0.67-4.63v-3.02H151.32z M145.44,536.89c0,1.54-0.22,3.02-0.6,4.32
			c-0.24,0.79-0.58,1.51-0.94,2.16h5.35v-8.4h-3.82V536.89z"/>
		<path class="st2" d="M154.99,533.5c0.82-0.14,2.33-0.26,3.7-0.26c1.94,0,5.16,0.31,5.16,2.9c0,1.44-1.1,2.33-2.42,2.62v0.05
			c1.7,0.24,2.95,1.2,2.95,2.88c0,3.05-3.84,3.43-6.12,3.43c-1.3,0-2.64-0.1-3.26-0.14V533.5z M156.98,543.58
			c0.6,0.07,1.03,0.1,1.7,0.1c1.42,0,3.53-0.34,3.53-2.02s-1.68-2.04-3.7-2.04h-1.54V543.58z M157.01,538.23h1.58
			c1.56,0,3.17-0.46,3.17-1.82c0-1.15-1.01-1.71-3.12-1.71c-0.7,0-1.13,0.05-1.63,0.1V538.23z"/>
		<path class="st2" d="M168.98,533.36v4.9c0,1.85-0.02,3-0.12,4.66l0.07,0.02c0.7-1.42,1.1-2.23,1.87-3.58l3.62-6h2.47v11.62h-2.02
			v-4.92c0-1.9,0.05-2.88,0.14-4.75h-0.07c-0.74,1.49-1.25,2.42-1.92,3.6c-1.1,1.8-2.38,4.03-3.63,6.07h-2.42v-11.62H168.98z"/>
		<path class="st2" d="M187.42,533.36v1.7h-5.04v9.91h-2.09v-11.62H187.42z"/>
		<path class="st2" d="M195.67,544.98l-0.17-1.46h-0.07c-0.65,0.91-1.9,1.73-3.55,1.73c-2.35,0-3.55-1.66-3.55-3.34
			c0-2.81,2.5-4.34,6.98-4.32v-0.24c0-0.96-0.26-2.69-2.64-2.69c-1.08,0-2.21,0.34-3.02,0.86l-0.48-1.39
			c0.96-0.62,2.35-1.03,3.82-1.03c3.55,0,4.42,2.42,4.42,4.75v4.34c0,1.01,0.05,1.99,0.19,2.78H195.67z M195.36,539.05
			c-2.3-0.05-4.92,0.36-4.92,2.62c0,1.37,0.91,2.02,1.99,2.02c1.51,0,2.47-0.96,2.81-1.94c0.07-0.22,0.12-0.46,0.12-0.67V539.05z"/>
		<path class="st2" d="M202.75,533.36v4.9c0,1.85-0.02,3-0.12,4.66l0.07,0.02c0.7-1.42,1.1-2.23,1.87-3.58l3.62-6h2.47v11.62h-2.02
			v-4.92c0-1.9,0.05-2.88,0.14-4.75h-0.07c-0.74,1.49-1.25,2.42-1.92,3.6c-1.1,1.8-2.38,4.03-3.63,6.07h-2.42v-11.62H202.75z
			 M204.12,528.63c0.07,1.03,0.58,1.82,1.54,1.82c1.03,0,1.51-0.77,1.63-1.82h1.51c-0.1,1.97-1.34,2.98-3.19,2.98
			c-2.11,0-2.93-1.32-3.02-2.98H204.12z"/>
		<path class="st2" d="M221.88,533.36v1.68h-3.62v9.94h-2.09v-9.94h-3.63v-1.68H221.88z"/>
		<path class="st2" d="M224.59,539.55c0.05,2.86,1.87,4.03,3.98,4.03c1.51,0,2.42-0.26,3.22-0.6l0.36,1.51
			c-0.74,0.34-2.02,0.72-3.86,0.72c-3.58,0-5.71-2.35-5.71-5.86c0-3.5,2.06-6.26,5.45-6.26c3.79,0,4.8,3.34,4.8,5.47
			c0,0.43-0.05,0.77-0.07,0.98H224.59z M230.78,538.04c0.02-1.34-0.55-3.43-2.93-3.43c-2.14,0-3.07,1.97-3.24,3.43H230.78z"/>
		<path class="st2" d="M234.07,547.93c0.53-1.42,1.18-3.98,1.44-5.74l2.35-0.24c-0.55,2.04-1.61,4.7-2.28,5.83L234.07,547.93z"/>
		<path class="st2" d="M247.41,533.36v3.82c0,1.46,0.55,2.47,2.4,2.47c0.91,0,1.85-0.34,2.5-0.82v-5.47h2.09v11.62h-2.09v-4.66
			h-0.05c-0.79,0.53-2.04,0.89-3.14,0.89c-2.21,0-3.82-1.13-3.82-3.79v-4.06H247.41z"/>
		<path class="st2" d="M265.63,533.36v1.68h-3.62v9.94h-2.09v-9.94h-3.63v-1.68H265.63z"/>
		<path class="st2" d="M277.68,539.07c0,4.3-2.98,6.17-5.78,6.17c-3.14,0-5.57-2.3-5.57-5.98c0-3.89,2.54-6.17,5.76-6.17
			C275.42,533.1,277.68,535.52,277.68,539.07z M268.46,539.19c0,2.54,1.46,4.46,3.53,4.46c2.02,0,3.53-1.9,3.53-4.51
			c0-1.97-0.98-4.46-3.48-4.46C269.54,534.68,268.46,536.98,268.46,539.19z"/>
		<path class="st2" d="M289.13,529.42c-0.6,0.21-1.66,0.41-2.42,0.53c-1.87,0.29-3.24,0.91-4.13,2.18
			c-0.74,1.06-1.18,2.62-1.27,3.84h0.07c0.74-1.68,2.38-2.62,4.03-2.62c2.86,0,4.94,2.04,4.94,5.74c0,3.79-1.97,6.14-5.38,6.14
			c-4.08,0-5.42-3.91-5.42-7.78c0-2.64,0.55-4.8,1.8-6.43c1.13-1.61,2.74-2.35,4.99-2.74c0.94-0.14,2.09-0.34,2.88-0.62
			L289.13,529.42z M284.97,534.92c-1.25,0-2.14,0.65-2.62,1.58c-0.38,0.7-0.58,1.54-0.58,2.47c0,1.92,0.94,4.68,3.24,4.68
			c2.33,0,3.19-2.26,3.19-4.39C288.21,537.37,287.47,534.92,284.97,534.92z"/>
		<path class="st2" d="M295.05,533.36v3.96c0.46-0.1,1.13-0.14,1.9-0.14c2.5,0,5.02,1.03,5.02,3.89c0,1.22-0.46,2.06-1.2,2.69
			c-1.27,1.08-3.14,1.34-4.68,1.34c-1.18,0-2.26-0.07-3.12-0.17v-11.57H295.05z M295.05,543.51c0.41,0.05,0.86,0.1,1.46,0.1
			c1.61,0,3.36-0.67,3.36-2.47c0-1.87-1.68-2.45-3.26-2.45c-0.6,0-1.13,0.05-1.56,0.12V543.51z M305.52,533.36v11.62h-2.09v-11.62
			H305.52z"/>
		<path class="st2" d="M63.31,560.36l2.54,6.87c0.26,0.77,0.55,1.68,0.74,2.38h0.05c0.22-0.7,0.46-1.58,0.74-2.42l2.3-6.82h2.23
			l-3.17,8.28c-1.51,3.98-2.54,6.02-3.98,7.27c-1.03,0.91-2.06,1.27-2.59,1.37l-0.53-1.78c0.53-0.17,1.22-0.5,1.85-1.03
			c0.58-0.46,1.3-1.27,1.78-2.35c0.1-0.22,0.17-0.38,0.17-0.5c0-0.12-0.05-0.29-0.14-0.55l-4.3-10.71H63.31z"/>
		<path class="st2" d="M73.8,560.5c0.82-0.14,2.33-0.26,3.7-0.26c1.94,0,5.16,0.31,5.16,2.9c0,1.44-1.1,2.33-2.42,2.62v0.05
			c1.7,0.24,2.95,1.2,2.95,2.88c0,3.05-3.84,3.43-6.12,3.43c-1.3,0-2.64-0.1-3.26-0.14V560.5z M75.79,570.58
			c0.6,0.07,1.03,0.1,1.7,0.1c1.42,0,3.53-0.34,3.53-2.02s-1.68-2.04-3.7-2.04h-1.54V570.58z M75.82,565.23h1.58
			c1.56,0,3.17-0.46,3.17-1.82c0-1.15-1.01-1.71-3.12-1.71c-0.7,0-1.13,0.05-1.63,0.1V565.23z"/>
		<path class="st2" d="M87.03,566.55c0.05,2.86,1.87,4.03,3.98,4.03c1.51,0,2.42-0.26,3.22-0.6l0.36,1.51
			c-0.74,0.34-2.02,0.72-3.86,0.72c-3.58,0-5.71-2.35-5.71-5.86c0-3.5,2.06-6.26,5.45-6.26c3.79,0,4.8,3.34,4.8,5.47
			c0,0.43-0.05,0.77-0.07,0.98H87.03z M93.22,565.04c0.02-1.34-0.55-3.43-2.93-3.43c-2.14,0-3.07,1.97-3.24,3.43H93.22z"/>
		<path class="st2" d="M106.71,560.36v11.62h-2.09v-9.96h-3.98v3.02c0,3.26-0.31,5.45-1.82,6.43c-0.58,0.46-1.22,0.72-2.3,0.72
			l-0.22-1.66c0.41-0.07,0.86-0.24,1.15-0.48c1.08-0.79,1.2-2.42,1.2-5.02v-4.68H106.71z"/>
		<path class="st2" d="M112.1,560.36v4.9c0,1.85-0.02,3-0.12,4.66l0.07,0.02c0.7-1.42,1.1-2.23,1.87-3.58l3.62-6h2.47v11.62h-2.02
			v-4.92c0-1.9,0.05-2.88,0.14-4.75h-0.07c-0.74,1.49-1.25,2.42-1.92,3.6c-1.1,1.8-2.38,4.03-3.63,6.07h-2.42v-11.62H112.1z"/>
		<path class="st2" d="M125.11,560.36v3.82c0,1.46,0.55,2.47,2.4,2.47c0.91,0,1.85-0.34,2.5-0.82v-5.47h2.09v11.62h-2.09v-4.66
			h-0.05c-0.79,0.53-2.04,0.89-3.14,0.89c-2.21,0-3.82-1.13-3.82-3.79v-4.06H125.11z"/>
		<path class="st2" d="M137.5,560.36v4.9c0,1.85-0.02,3-0.12,4.66l0.07,0.02c0.7-1.42,1.1-2.23,1.87-3.58l3.62-6h2.47v11.62h-2.02
			v-4.92c0-1.9,0.05-2.88,0.14-4.75h-0.07c-0.74,1.49-1.25,2.42-1.92,3.6c-1.1,1.8-2.38,4.03-3.63,6.07h-2.42v-11.62H137.5z"/>
		<path class="st2" d="M156.62,560.36v1.68H153v9.94h-2.09v-9.94h-3.63v-1.68H156.62z"/>
		<path class="st2" d="M160.51,560.36v3.94c0.48-0.1,1.3-0.12,1.92-0.12c2.62,0,5.38,0.82,5.38,3.91c0,1.2-0.48,2.04-1.22,2.66
			c-1.27,1.08-3.34,1.34-5.04,1.34c-1.18,0-2.26-0.07-3.12-0.17v-11.57H160.51z M160.51,570.51c0.41,0.05,0.86,0.1,1.56,0.1
			c1.58,0,3.62-0.53,3.62-2.47c0-2.02-2.11-2.45-3.67-2.45c-0.55,0-1.03,0.05-1.51,0.12V570.51z"/>
		<path class="st2" d="M177.46,560.36v4.9c0,1.85-0.02,3-0.12,4.66l0.07,0.02c0.7-1.42,1.1-2.23,1.87-3.58l3.62-6h2.47v11.62h-2.02
			v-4.92c0-1.9,0.05-2.88,0.14-4.75h-0.07c-0.74,1.49-1.25,2.42-1.92,3.6c-1.1,1.8-2.38,4.03-3.63,6.07h-2.42v-11.62H177.46z"/>
		<path class="st2" d="M197.62,560.36v11.62h-2.09v-9.96h-3.98v3.02c0,3.26-0.31,5.45-1.82,6.43c-0.58,0.46-1.22,0.72-2.3,0.72
			l-0.22-1.66c0.41-0.07,0.86-0.24,1.15-0.48c1.08-0.79,1.2-2.42,1.2-5.02v-4.68H197.62z"/>
		<path class="st2" d="M203.01,560.36v4.9c0,1.85-0.02,3-0.12,4.66l0.07,0.02c0.7-1.42,1.1-2.23,1.87-3.58l3.62-6h2.47v11.62h-2.02
			v-4.92c0-1.9,0.05-2.88,0.14-4.75h-0.07c-0.74,1.49-1.25,2.42-1.92,3.6c-1.1,1.8-2.38,4.03-3.63,6.07h-2.42v-11.62H203.01z"/>
		<path class="st2" d="M220.22,560.36l2.54,6.87c0.26,0.77,0.55,1.68,0.74,2.38h0.05c0.22-0.7,0.46-1.58,0.74-2.42l2.3-6.82h2.23
			l-3.17,8.28c-1.51,3.98-2.54,6.02-3.98,7.27c-1.03,0.91-2.06,1.27-2.59,1.37l-0.53-1.78c0.53-0.17,1.22-0.5,1.85-1.03
			c0.58-0.46,1.3-1.27,1.78-2.35c0.1-0.22,0.17-0.38,0.17-0.5c0-0.12-0.05-0.29-0.14-0.55l-4.3-10.71H220.22z"/>
		<path class="st2" d="M230.76,560.36h2.59l2.11,5.86c0.29,0.86,0.79,2.28,1.06,3.19h0.05c0.26-0.86,0.91-2.71,1.37-3.98l1.87-5.06
			h2.62l0.82,11.62h-2.02l-0.26-5.54c-0.07-1.25-0.17-2.74-0.22-4.15h-0.07c-0.31,1.06-0.62,1.99-1.27,3.77l-2.23,5.86h-1.54
			l-2.06-5.74c-0.36-1.1-0.86-2.78-1.15-3.86h-0.1c-0.05,1.37-0.12,2.9-0.19,4.18l-0.29,5.5h-1.94L230.76,560.36z"/>
		<path class="st2" d="M247.15,566.55c0.05,2.86,1.87,4.03,3.98,4.03c1.51,0,2.42-0.26,3.22-0.6l0.36,1.51
			c-0.74,0.34-2.02,0.72-3.86,0.72c-3.58,0-5.71-2.35-5.71-5.86c0-3.5,2.06-6.26,5.45-6.26c3.79,0,4.8,3.34,4.8,5.47
			c0,0.43-0.05,0.77-0.07,0.98H247.15z M253.34,565.04c0.02-1.34-0.55-3.43-2.93-3.43c-2.14,0-3.07,1.97-3.24,3.43H253.34z"/>
		<path class="st2" d="M260.04,560.36v4.68h5.52v-4.68h2.09v11.62h-2.09v-5.26h-5.52v5.26h-2.09v-11.62H260.04z"/>
		<path class="st2" d="M273.14,560.36v3.94c0.48-0.1,1.3-0.12,1.92-0.12c2.62,0,5.38,0.82,5.38,3.91c0,1.2-0.48,2.04-1.22,2.66
			c-1.27,1.08-3.34,1.34-5.04,1.34c-1.18,0-2.26-0.07-3.12-0.17v-11.57H273.14z M273.14,570.51c0.41,0.05,0.86,0.1,1.56,0.1
			c1.58,0,3.62-0.53,3.62-2.47c0-2.02-2.11-2.45-3.67-2.45c-0.55,0-1.03,0.05-1.51,0.12V570.51z"/>
		<path class="st2" d="M285.07,560.36v9.96h4.06v-9.96h2.06v9.96h4.06v-9.96h2.09v11.62h-14.33v-11.62H285.07z"/>
		<path class="st2" d="M302.71,560.36v4.9c0,1.85-0.02,3-0.12,4.66l0.07,0.02c0.7-1.42,1.1-2.23,1.87-3.58l3.62-6h2.47v11.62h-2.02
			v-4.92c0-1.9,0.05-2.88,0.14-4.75h-0.07c-0.74,1.49-1.25,2.42-1.92,3.6c-1.1,1.8-2.38,4.03-3.63,6.07h-2.42v-11.62H302.71z"/>
		<path class="st2" d="M321.84,560.36v1.68h-3.62v9.94h-2.09v-9.94h-3.63v-1.68H321.84z"/>
		<path class="st2" d="M325.73,560.36v3.94c0.48-0.1,1.3-0.12,1.92-0.12c2.62,0,5.38,0.82,5.38,3.91c0,1.2-0.48,2.04-1.22,2.66
			c-1.27,1.08-3.34,1.34-5.04,1.34c-1.18,0-2.26-0.07-3.12-0.17v-11.57H325.73z M325.73,570.51c0.41,0.05,0.86,0.1,1.56,0.1
			c1.58,0,3.62-0.53,3.62-2.47c0-2.02-2.11-2.45-3.67-2.45c-0.55,0-1.03,0.05-1.51,0.12V570.51z"/>
	</g>
	<line class="st1" x1="834.67" y1="278.21" x2="850.92" y2="294.47"/>
	<line class="st1" x1="834.75" y1="278.21" x2="818.5" y2="294.47"/>
	<g>
		<path class="st2" d="M194.45,34.11v6.77h7.83v-6.77h2.11v16.18h-2.11V42.7h-7.83v7.58h-2.09V34.11H194.45z"/>
		<path class="st2" d="M214.37,50.29l-0.17-1.46h-0.07c-0.65,0.91-1.9,1.73-3.55,1.73c-2.35,0-3.55-1.66-3.55-3.34
			c0-2.81,2.5-4.34,6.98-4.32v-0.24c0-0.96-0.26-2.69-2.64-2.69c-1.08,0-2.21,0.34-3.02,0.86l-0.48-1.39
			c0.96-0.62,2.35-1.03,3.82-1.03c3.55,0,4.42,2.42,4.42,4.75v4.34c0,1.01,0.05,1.99,0.19,2.78H214.37z M214.06,44.36
			c-2.3-0.05-4.92,0.36-4.92,2.62c0,1.37,0.91,2.02,1.99,2.02c1.51,0,2.47-0.96,2.81-1.94c0.07-0.22,0.12-0.46,0.12-0.67V44.36z"/>
		<path class="st2" d="M220.49,38.67l3.84,5.06h0.43v-5.06h2.02v5.06h0.41l3.84-5.06h2.42l-4.58,5.28c1.75,0.19,2.78,1.22,3.48,3.07
			c0.41,1.13,0.79,2.35,1.27,3.26h-2.11c-0.38-0.7-0.72-1.66-1.06-2.66c-0.72-1.9-1.8-2.47-3.31-2.47h-0.36v5.14h-2.02v-5.14h-0.38
			c-1.63,0-2.62,0.6-3.34,2.5c-0.38,1.01-0.7,1.92-1.1,2.64h-2.04c0.48-0.94,0.86-2.16,1.27-3.24c0.72-1.87,1.75-2.9,3.5-3.1
			l-4.61-5.28H220.49z"/>
		<path class="st2" d="M235.63,38.67h2.59l2.11,5.86c0.29,0.86,0.79,2.28,1.06,3.19h0.05c0.26-0.86,0.91-2.71,1.37-3.98l1.87-5.06
			h2.62l0.82,11.62h-2.02l-0.26-5.54c-0.07-1.25-0.17-2.74-0.22-4.15h-0.07c-0.31,1.06-0.62,1.99-1.27,3.77l-2.23,5.86h-1.54
			l-2.06-5.74c-0.36-1.1-0.86-2.78-1.15-3.86h-0.1c-0.05,1.37-0.12,2.9-0.19,4.18l-0.29,5.5h-1.94L235.63,38.67z"/>
		<path class="st2" d="M252.79,38.67v4.9c0,1.85-0.02,3-0.12,4.66l0.07,0.02c0.7-1.42,1.1-2.23,1.87-3.58l3.62-6h2.47v11.62h-2.02
			v-4.92c0-1.9,0.05-2.88,0.14-4.75h-0.07c-0.74,1.49-1.25,2.42-1.92,3.6c-1.1,1.8-2.38,4.03-3.63,6.07h-2.42V38.67H252.79z"/>
		<path class="st2" d="M271.92,38.67v1.68h-3.62v9.94h-2.09v-9.94h-3.63v-1.68H271.92z"/>
		<path class="st2" d="M274.63,44.86c0.05,2.86,1.87,4.03,3.98,4.03c1.51,0,2.42-0.26,3.22-0.6l0.36,1.51
			c-0.74,0.34-2.02,0.72-3.86,0.72c-3.58,0-5.71-2.35-5.71-5.86c0-3.5,2.06-6.26,5.45-6.26c3.79,0,4.8,3.34,4.8,5.47
			c0,0.43-0.05,0.77-0.07,0.98H274.63z M280.83,43.35c0.02-1.34-0.55-3.43-2.93-3.43c-2.14,0-3.07,1.97-3.24,3.43H280.83z"/>
		<path class="st2" d="M284.11,53.24c0.53-1.42,1.18-3.98,1.44-5.74l2.35-0.24c-0.55,2.04-1.61,4.7-2.28,5.83L284.11,53.24z"/>
		<path class="st2" d="M125.76,65.67v3.82c0,1.46,0.55,2.47,2.4,2.47c0.91,0,1.85-0.34,2.5-0.82v-5.47h2.09v11.62h-2.09v-4.66h-0.05
			c-0.79,0.53-2.04,0.89-3.14,0.89c-2.21,0-3.82-1.13-3.82-3.79v-4.06H125.76z"/>
		<path class="st2" d="M143.98,65.67v1.68h-3.62v9.94h-2.09v-9.94h-3.63v-1.68H143.98z"/>
		<path class="st2" d="M156.03,71.38c0,4.3-2.98,6.17-5.78,6.17c-3.14,0-5.57-2.3-5.57-5.98c0-3.89,2.54-6.17,5.76-6.17
			C153.77,65.4,156.03,67.83,156.03,71.38z M146.81,71.5c0,2.54,1.46,4.46,3.53,4.46c2.02,0,3.53-1.9,3.53-4.51
			c0-1.97-0.98-4.46-3.48-4.46C147.89,66.99,146.81,69.29,146.81,71.5z"/>
		<path class="st2" d="M167.48,61.73c-0.6,0.22-1.66,0.41-2.42,0.53c-1.87,0.29-3.24,0.91-4.13,2.18c-0.74,1.06-1.18,2.62-1.27,3.84
			h0.07c0.74-1.68,2.38-2.62,4.03-2.62c2.86,0,4.94,2.04,4.94,5.74c0,3.79-1.97,6.14-5.38,6.14c-4.08,0-5.42-3.91-5.42-7.78
			c0-2.64,0.55-4.8,1.8-6.43c1.13-1.61,2.74-2.35,4.99-2.74c0.94-0.14,2.09-0.34,2.88-0.62L167.48,61.73z M163.32,67.23
			c-1.25,0-2.14,0.65-2.62,1.58c-0.38,0.7-0.58,1.54-0.58,2.47c0,1.92,0.94,4.68,3.24,4.68c2.33,0,3.19-2.26,3.19-4.39
			C166.56,69.68,165.82,67.23,163.32,67.23z"/>
		<path class="st2" d="M173.4,65.67v3.96c0.46-0.1,1.13-0.14,1.9-0.14c2.5,0,5.02,1.03,5.02,3.89c0,1.22-0.46,2.06-1.2,2.69
			c-1.27,1.08-3.14,1.34-4.68,1.34c-1.18,0-2.26-0.07-3.12-0.17V65.67H173.4z M173.4,75.82c0.41,0.05,0.86,0.1,1.46,0.1
			c1.61,0,3.36-0.67,3.36-2.47c0-1.87-1.68-2.45-3.26-2.45c-0.6,0-1.13,0.05-1.56,0.12V75.82z M183.87,65.67v11.62h-2.09V65.67
			H183.87z"/>
		<path class="st2" d="M202.92,71.38c0,4.3-2.98,6.17-5.78,6.17c-3.14,0-5.57-2.3-5.57-5.98c0-3.89,2.54-6.17,5.76-6.17
			C200.67,65.4,202.92,67.83,202.92,71.38z M193.71,71.5c0,2.54,1.46,4.46,3.53,4.46c2.02,0,3.53-1.9,3.53-4.51
			c0-1.97-0.98-4.46-3.48-4.46C194.79,66.99,193.71,69.29,193.71,71.5z"/>
		<path class="st2" d="M213.24,65.67v1.68h-3.62v9.94h-2.09v-9.94h-3.63v-1.68H213.24z"/>
		<path class="st2" d="M215.23,65.67h2.59l2.11,5.86c0.29,0.86,0.79,2.28,1.06,3.19h0.05c0.26-0.86,0.91-2.71,1.37-3.98l1.87-5.06
			h2.62l0.82,11.62h-2.02l-0.26-5.54c-0.07-1.25-0.17-2.74-0.22-4.15h-0.07c-0.31,1.06-0.62,1.99-1.27,3.77l-2.23,5.86h-1.54
			l-2.06-5.74c-0.36-1.1-0.86-2.78-1.15-3.86h-0.1c-0.05,1.37-0.12,2.9-0.19,4.18l-0.29,5.5h-1.94L215.23,65.67z"/>
		<path class="st2" d="M231.63,71.86c0.05,2.86,1.87,4.03,3.98,4.03c1.51,0,2.42-0.26,3.22-0.6l0.36,1.51
			c-0.74,0.34-2.02,0.72-3.86,0.72c-3.58,0-5.71-2.35-5.71-5.86c0-3.5,2.06-6.26,5.45-6.26c3.79,0,4.8,3.34,4.8,5.47
			c0,0.43-0.05,0.77-0.07,0.98H231.63z M237.82,70.35c0.02-1.34-0.55-3.43-2.93-3.43c-2.14,0-3.07,1.97-3.24,3.43H237.82z"/>
		<path class="st2" d="M244.51,65.67v4.68h5.52v-4.68h2.09v11.62h-2.09v-5.26h-5.52v5.26h-2.09V65.67H244.51z"/>
		<path class="st2" d="M257.52,65.67v4.9c0,1.85-0.02,3-0.12,4.66l0.07,0.02c0.7-1.42,1.1-2.23,1.87-3.58l3.62-6h2.47v11.62h-2.02
			v-4.92c0-1.9,0.05-2.88,0.14-4.75h-0.07c-0.74,1.49-1.25,2.42-1.92,3.6c-1.1,1.8-2.38,4.03-3.63,6.07h-2.42V65.67H257.52z"/>
		<path class="st2" d="M276.65,65.67v1.68h-3.62v9.94h-2.09v-9.94h-3.63v-1.68H276.65z"/>
		<path class="st2" d="M280.54,65.67v3.94c0.48-0.1,1.3-0.12,1.92-0.12c2.62,0,5.38,0.82,5.38,3.91c0,1.2-0.48,2.04-1.22,2.66
			c-1.27,1.08-3.34,1.34-5.04,1.34c-1.18,0-2.26-0.07-3.12-0.17V65.67H280.54z M280.54,75.82c0.41,0.05,0.86,0.1,1.56,0.1
			c1.58,0,3.62-0.53,3.62-2.47c0-2.02-2.11-2.45-3.67-2.45c-0.55,0-1.03,0.05-1.51,0.12V75.82z"/>
	</g>
	<path class="st1" d="M343.5,97.5c0-22.11-17.89-40-40-40"/>
	<line class="st1" x1="343.5" y1="142" x2="343.5" y2="97"/>
	<line class="st1" x1="343.5" y1="144.5" x2="318.38" y2="119.38"/>
	<line class="st1" x1="343.38" y1="144.5" x2="368.5" y2="119.38"/>
	<path class="st1" d="M836.5,78.5c-22.11,0-40,17.89-40,40"/>
	<line class="st1" x1="796.5" y1="172" x2="796.5" y2="118"/>
	<line class="st1" x1="796.5" y1="172.5" x2="771.38" y2="147.38"/>
	<line class="st1" x1="796.38" y1="172.5" x2="821.5" y2="147.38"/>
	<line class="st1" x1="451.71" y1="665.04" x2="691.71" y2="665.04"/>
	<line class="st1" x1="691.71" y1="664.96" x2="675.46" y2="681.21"/>
	<line class="st1" x1="691.71" y1="665.04" x2="675.46" y2="648.79"/>
	<line class="st1" x1="452.93" y1="665.04" x2="469.18" y2="648.79"/>
	<line class="st1" x1="452.93" y1="664.96" x2="469.18" y2="681.21"/>
	<path class="st1" d="M194.5,587.5c0,22.11,17.89,40,40,40"/>
	<line class="st1" x1="339" y1="627.5" x2="234" y2="627.5"/>
	<line class="st1" x1="339.5" y1="627.5" x2="314.38" y2="652.62"/>
	<line class="st1" x1="339.5" y1="627.62" x2="314.38" y2="602.5"/>
	<line class="st1" x1="628.19" y1="467" x2="628.19" y2="537.73"/>
	<line class="st1" x1="628.23" y1="538" x2="619.36" y2="529.12"/>
	<line class="st1" x1="628.19" y1="538" x2="637.07" y2="529.12"/>
	<line class="st1" x1="628.19" y1="467.66" x2="637.07" y2="476.54"/>
	<line class="st1" x1="628.23" y1="467.66" x2="619.36" y2="476.54"/>
	<line class="st1" x1="663.71" y1="502.48" x2="592.99" y2="502.48"/>
	<line class="st1" x1="592.71" y1="502.52" x2="601.59" y2="493.65"/>
	<line class="st1" x1="592.71" y1="502.48" x2="601.59" y2="511.35"/>
	<line class="st1" x1="663.05" y1="502.48" x2="654.17" y2="511.35"/>
	<line class="st1" x1="663.05" y1="502.52" x2="654.17" y2="493.65"/>
	<g>
		<path class="st2" d="M180.96,280.8v16.18h-2.09v-14.43h-7.51v14.43h-2.09V280.8H180.96z"/>
		<path class="st2" d="M185.71,291.55c0.05,2.86,1.87,4.03,3.98,4.03c1.51,0,2.42-0.26,3.22-0.6l0.36,1.51
			c-0.74,0.34-2.02,0.72-3.86,0.72c-3.58,0-5.71-2.35-5.71-5.86c0-3.5,2.06-6.26,5.45-6.26c3.79,0,4.8,3.34,4.8,5.47
			c0,0.43-0.05,0.77-0.07,0.98H185.71z M191.91,290.04c0.02-1.34-0.55-3.43-2.93-3.43c-2.14,0-3.07,1.97-3.24,3.43H191.91z"/>
		<path class="st2" d="M196.56,289.15c0-1.49-0.05-2.69-0.1-3.79h1.9l0.1,1.99h0.05c0.86-1.42,2.23-2.26,4.13-2.26
			c2.81,0,4.92,2.38,4.92,5.9c0,4.18-2.54,6.24-5.28,6.24c-1.54,0-2.88-0.67-3.58-1.82h-0.05v6.31h-2.09V289.15z M198.65,292.25
			c0,0.31,0.05,0.6,0.1,0.86c0.38,1.46,1.66,2.47,3.17,2.47c2.23,0,3.53-1.82,3.53-4.49c0-2.33-1.22-4.32-3.46-4.32
			c-1.44,0-2.78,1.03-3.19,2.62c-0.07,0.26-0.14,0.58-0.14,0.86V292.25z"/>
		<path class="st2" d="M211.39,291.55c0.05,2.86,1.87,4.03,3.98,4.03c1.51,0,2.42-0.26,3.22-0.6l0.36,1.51
			c-0.74,0.34-2.02,0.72-3.86,0.72c-3.58,0-5.71-2.35-5.71-5.86c0-3.5,2.06-6.26,5.45-6.26c3.79,0,4.8,3.34,4.8,5.47
			c0,0.43-0.05,0.77-0.07,0.98H211.39z M217.58,290.04c0.02-1.34-0.55-3.43-2.93-3.43c-2.14,0-3.07,1.97-3.24,3.43H217.58z"/>
		<path class="st2" d="M229.99,285.36v1.68h-3.62v9.94h-2.09v-9.94h-3.63v-1.68H229.99z"/>
		<path class="st2" d="M238.1,296.98l-0.17-1.46h-0.07c-0.65,0.91-1.9,1.73-3.55,1.73c-2.35,0-3.55-1.66-3.55-3.34
			c0-2.81,2.5-4.34,6.98-4.32v-0.24c0-0.96-0.26-2.69-2.64-2.69c-1.08,0-2.21,0.34-3.02,0.86l-0.48-1.39
			c0.96-0.62,2.35-1.03,3.82-1.03c3.55,0,4.42,2.42,4.42,4.75v4.34c0,1.01,0.05,1.99,0.19,2.78H238.1z M237.79,291.05
			c-2.3-0.05-4.92,0.36-4.92,2.62c0,1.37,0.91,2.02,1.99,2.02c1.51,0,2.47-0.96,2.81-1.94c0.07-0.22,0.12-0.46,0.12-0.67V291.05z"/>
		<path class="st2" d="M251.52,296.54c-0.55,0.29-1.78,0.67-3.34,0.67c-3.5,0-5.78-2.38-5.78-5.93c0-3.58,2.45-6.17,6.24-6.17
			c1.25,0,2.35,0.31,2.93,0.6l-0.48,1.63c-0.5-0.29-1.3-0.55-2.45-0.55c-2.66,0-4.1,1.97-4.1,4.39c0,2.69,1.73,4.34,4.03,4.34
			c1.2,0,1.99-0.31,2.59-0.58L251.52,296.54z"/>
		<path class="st2" d="M256.08,285.36v5.04h0.5l4.37-5.04h2.57l-5.06,5.26c1.87,0.19,3,1.44,3.91,3.53c0.31,0.77,0.72,1.9,1.25,2.83
			h-2.21c-0.31-0.5-0.72-1.42-1.08-2.38c-0.79-1.87-1.87-2.74-3.84-2.74h-0.41v5.11h-2.09v-11.62H256.08z"/>
		<path class="st2" d="M267.43,285.36v4.9c0,1.85-0.02,3-0.12,4.66l0.07,0.02c0.7-1.42,1.1-2.23,1.87-3.58l3.62-6h2.47v11.62h-2.02
			v-4.92c0-1.9,0.05-2.88,0.14-4.75h-0.07c-0.74,1.49-1.25,2.42-1.92,3.6c-1.1,1.8-2.38,4.03-3.63,6.07h-2.42v-11.62H267.43z"/>
		<path class="st2" d="M278.73,285.5c0.82-0.14,2.33-0.26,3.7-0.26c1.94,0,5.16,0.31,5.16,2.9c0,1.44-1.1,2.33-2.42,2.62v0.05
			c1.7,0.24,2.95,1.2,2.95,2.88c0,3.05-3.84,3.43-6.12,3.43c-1.3,0-2.64-0.1-3.26-0.14V285.5z M280.73,295.58
			c0.6,0.07,1.03,0.1,1.7,0.1c1.42,0,3.53-0.34,3.53-2.02c0-1.68-1.68-2.04-3.7-2.04h-1.54V295.58z M280.75,290.23h1.58
			c1.56,0,3.17-0.46,3.17-1.82c0-1.15-1.01-1.7-3.12-1.7c-0.7,0-1.13,0.05-1.63,0.1V290.23z"/>
		<path class="st2" d="M297.21,296.98l-0.17-1.46h-0.07c-0.65,0.91-1.9,1.73-3.55,1.73c-2.35,0-3.55-1.66-3.55-3.34
			c0-2.81,2.5-4.34,6.98-4.32v-0.24c0-0.96-0.26-2.69-2.64-2.69c-1.08,0-2.21,0.34-3.02,0.86l-0.48-1.39
			c0.96-0.62,2.35-1.03,3.82-1.03c3.55,0,4.42,2.42,4.42,4.75v4.34c0,1.01,0.05,1.99,0.19,2.78H297.21z M296.9,291.05
			c-2.3-0.05-4.92,0.36-4.92,2.62c0,1.37,0.91,2.02,1.99,2.02c1.51,0,2.47-0.96,2.81-1.94c0.07-0.22,0.12-0.46,0.12-0.67V291.05z"/>
		<path class="st2" d="M304.29,285.36v4.9c0,1.85-0.02,3-0.12,4.66l0.07,0.02c0.7-1.42,1.1-2.23,1.87-3.58l3.62-6h2.47v11.62h-2.02
			v-4.92c0-1.9,0.05-2.88,0.14-4.75h-0.07c-0.74,1.49-1.25,2.42-1.92,3.6c-1.1,1.8-2.38,4.03-3.63,6.07h-2.42v-11.62H304.29z
			 M305.66,280.63c0.07,1.03,0.58,1.82,1.54,1.82c1.03,0,1.51-0.77,1.63-1.82h1.51c-0.1,1.97-1.34,2.98-3.19,2.98
			c-2.11,0-2.93-1.32-3.02-2.98H305.66z"/>
		<path class="st2" d="M323.42,285.36v1.68h-3.62v9.94h-2.09v-9.94h-3.63v-1.68H323.42z"/>
		<path class="st2" d="M326.14,291.55c0.05,2.86,1.87,4.03,3.98,4.03c1.51,0,2.42-0.26,3.22-0.6l0.36,1.51
			c-0.74,0.34-2.02,0.72-3.86,0.72c-3.58,0-5.71-2.35-5.71-5.86c0-3.5,2.06-6.26,5.45-6.26c3.79,0,4.8,3.34,4.8,5.47
			c0,0.43-0.05,0.77-0.07,0.98H326.14z M332.33,290.04c0.02-1.34-0.55-3.43-2.93-3.43c-2.14,0-3.07,1.97-3.24,3.43H332.33z"/>
	</g>
	<line class="st1" x1="491" y1="290.5" x2="351" y2="290.5"/>
	<line class="st1" x1="491.5" y1="290.5" x2="466.38" y2="315.62"/>
	<line class="st1" x1="491.5" y1="290.62" x2="466.38" y2="265.5"/>
	<g>
		<path class="st2" d="M971.53,430.11v6.77h7.83v-6.77h2.11v16.18h-2.11v-7.58h-7.83v7.58h-2.09v-16.18H971.53z"/>
		<path class="st2" d="M991.45,446.29l-0.17-1.46h-0.07c-0.65,0.91-1.9,1.73-3.55,1.73c-2.35,0-3.55-1.66-3.55-3.34
			c0-2.81,2.5-4.34,6.98-4.32v-0.24c0-0.96-0.26-2.69-2.64-2.69c-1.08,0-2.21,0.34-3.02,0.86l-0.48-1.39
			c0.96-0.62,2.35-1.03,3.82-1.03c3.55,0,4.42,2.42,4.42,4.75v4.34c0,1.01,0.05,1.99,0.19,2.78H991.45z M991.14,440.36
			c-2.3-0.05-4.92,0.36-4.92,2.62c0,1.37,0.91,2.02,1.99,2.02c1.51,0,2.47-0.96,2.81-1.94c0.07-0.22,0.12-0.46,0.12-0.67V440.36z"/>
		<path class="st2" d="M997.57,434.67l3.84,5.06h0.43v-5.06h2.02v5.06h0.41l3.84-5.06h2.42l-4.58,5.28
			c1.75,0.19,2.78,1.22,3.48,3.07c0.41,1.13,0.79,2.35,1.27,3.26h-2.11c-0.38-0.7-0.72-1.66-1.06-2.66c-0.72-1.9-1.8-2.47-3.31-2.47
			h-0.36v5.14h-2.02v-5.14h-0.38c-1.63,0-2.62,0.6-3.34,2.5c-0.38,1.01-0.7,1.92-1.1,2.64h-2.04c0.48-0.94,0.86-2.16,1.27-3.24
			c0.72-1.87,1.75-2.9,3.5-3.1l-4.61-5.28H997.57z"/>
		<path class="st2" d="M1012.71,434.67h2.59l2.11,5.86c0.29,0.86,0.79,2.28,1.06,3.19h0.05c0.26-0.86,0.91-2.71,1.37-3.98l1.87-5.06
			h2.62l0.82,11.62h-2.02l-0.26-5.54c-0.07-1.25-0.17-2.74-0.22-4.15h-0.07c-0.31,1.06-0.62,1.99-1.27,3.77l-2.23,5.86h-1.54
			l-2.06-5.74c-0.36-1.1-0.86-2.78-1.15-3.86h-0.1c-0.05,1.37-0.12,2.9-0.19,4.18l-0.29,5.5h-1.94L1012.71,434.67z"/>
		<path class="st2" d="M1029.87,434.67v4.9c0,1.85-0.02,3-0.12,4.66l0.07,0.02c0.7-1.42,1.1-2.23,1.87-3.58l3.62-6h2.47v11.62h-2.02
			v-4.92c0-1.9,0.05-2.88,0.14-4.75h-0.07c-0.74,1.49-1.25,2.42-1.92,3.6c-1.1,1.8-2.38,4.03-3.63,6.07h-2.42v-11.62H1029.87z"/>
		<path class="st2" d="M1049,434.67v1.68h-3.62v9.94h-2.09v-9.94h-3.63v-1.68H1049z"/>
		<path class="st2" d="M1051.71,440.86c0.05,2.86,1.87,4.03,3.98,4.03c1.51,0,2.42-0.26,3.22-0.6l0.36,1.51
			c-0.74,0.34-2.02,0.72-3.86,0.72c-3.58,0-5.71-2.35-5.71-5.86s2.06-6.26,5.45-6.26c3.79,0,4.8,3.34,4.8,5.47
			c0,0.43-0.05,0.77-0.07,0.98H1051.71z M1057.91,439.35c0.02-1.34-0.55-3.43-2.93-3.43c-2.14,0-3.07,1.97-3.24,3.43H1057.91z"/>
		<path class="st2" d="M1061.19,449.24c0.53-1.42,1.18-3.98,1.44-5.74l2.35-0.24c-0.55,2.04-1.61,4.71-2.28,5.83L1061.19,449.24z"/>
		<path class="st2" d="M925.01,461.67v3.82c0,1.46,0.55,2.47,2.4,2.47c0.91,0,1.85-0.34,2.5-0.82v-5.47h2.09v11.62h-2.09v-4.66
			h-0.05c-0.79,0.53-2.04,0.89-3.14,0.89c-2.21,0-3.82-1.13-3.82-3.79v-4.06H925.01z"/>
		<path class="st2" d="M943.22,461.67v1.68h-3.62v9.94h-2.09v-9.94h-3.63v-1.68H943.22z"/>
		<path class="st2" d="M955.27,467.38c0,4.3-2.98,6.17-5.78,6.17c-3.14,0-5.57-2.3-5.57-5.98c0-3.89,2.54-6.17,5.76-6.17
			C953.02,461.4,955.27,463.83,955.27,467.38z M946.05,467.5c0,2.54,1.46,4.46,3.53,4.46c2.02,0,3.53-1.9,3.53-4.51
			c0-1.97-0.98-4.46-3.48-4.46C947.13,462.99,946.05,465.29,946.05,467.5z"/>
		<path class="st2" d="M966.72,457.73c-0.6,0.22-1.66,0.41-2.42,0.53c-1.87,0.29-3.24,0.91-4.13,2.18
			c-0.74,1.06-1.18,2.62-1.27,3.84h0.07c0.74-1.68,2.38-2.62,4.03-2.62c2.86,0,4.94,2.04,4.94,5.74c0,3.79-1.97,6.14-5.38,6.14
			c-4.08,0-5.42-3.91-5.42-7.78c0-2.64,0.55-4.8,1.8-6.43c1.13-1.61,2.74-2.35,4.99-2.74c0.94-0.14,2.09-0.34,2.88-0.62
			L966.72,457.73z M962.57,463.23c-1.25,0-2.14,0.65-2.62,1.58c-0.38,0.7-0.58,1.54-0.58,2.47c0,1.92,0.94,4.68,3.24,4.68
			c2.33,0,3.19-2.26,3.19-4.39C965.81,465.68,965.06,463.23,962.57,463.23z"/>
		<path class="st2" d="M972.65,461.67v3.96c0.46-0.1,1.13-0.14,1.9-0.14c2.5,0,5.02,1.03,5.02,3.89c0,1.22-0.46,2.06-1.2,2.69
			c-1.27,1.08-3.14,1.34-4.68,1.34c-1.18,0-2.26-0.07-3.12-0.17v-11.57H972.65z M972.65,471.82c0.41,0.05,0.86,0.1,1.46,0.1
			c1.61,0,3.36-0.67,3.36-2.47c0-1.87-1.68-2.45-3.26-2.45c-0.6,0-1.13,0.05-1.56,0.12V471.82z M983.11,461.67v11.62h-2.09v-11.62
			H983.11z"/>
		<path class="st2" d="M1001.21,461.67v11.62h-2.11v-9.94h-5.4v9.94h-2.09v-11.62H1001.21z"/>
		<path class="st2" d="M1015.15,467.38c0,4.3-2.98,6.17-5.78,6.17c-3.14,0-5.57-2.3-5.57-5.98c0-3.89,2.54-6.17,5.76-6.17
			C1012.89,461.4,1015.15,463.83,1015.15,467.38z M1005.93,467.5c0,2.54,1.46,4.46,3.53,4.46c2.02,0,3.53-1.9,3.53-4.51
			c0-1.97-0.98-4.46-3.48-4.46C1007.01,462.99,1005.93,465.29,1005.93,467.5z"/>
		<path class="st2" d="M1026.09,472.85c-0.55,0.29-1.78,0.67-3.34,0.67c-3.5,0-5.78-2.38-5.78-5.93c0-3.58,2.45-6.17,6.24-6.17
			c1.25,0,2.35,0.31,2.93,0.6l-0.48,1.63c-0.5-0.29-1.3-0.55-2.45-0.55c-2.66,0-4.1,1.97-4.1,4.39c0,2.69,1.73,4.34,4.03,4.34
			c1.2,0,1.99-0.31,2.59-0.58L1026.09,472.85z"/>
		<path class="st2" d="M1028.69,461.67h2.59l2.11,5.86c0.29,0.86,0.79,2.28,1.06,3.19h0.05c0.26-0.86,0.91-2.71,1.37-3.98l1.87-5.06
			h2.62l0.82,11.62h-2.02l-0.26-5.54c-0.07-1.25-0.17-2.74-0.22-4.15h-0.07c-0.31,1.06-0.62,1.99-1.27,3.77l-2.23,5.86h-1.54
			l-2.06-5.74c-0.36-1.1-0.86-2.78-1.15-3.86h-0.1c-0.05,1.37-0.12,2.9-0.19,4.18l-0.29,5.5h-1.94L1028.69,461.67z"/>
		<path class="st2" d="M1054.41,467.38c0,4.3-2.98,6.17-5.78,6.17c-3.14,0-5.57-2.3-5.57-5.98c0-3.89,2.54-6.17,5.76-6.17
			C1052.16,461.4,1054.41,463.83,1054.41,467.38z M1045.2,467.5c0,2.54,1.46,4.46,3.53,4.46c2.02,0,3.53-1.9,3.53-4.51
			c0-1.97-0.98-4.46-3.48-4.46C1046.28,462.99,1045.2,465.29,1045.2,467.5z"/>
		<path class="st2" d="M1064.73,461.67v1.68h-3.62v9.94h-2.09v-9.94h-3.63v-1.68H1064.73z"/>
		<path class="st2" d="M1066.58,465.46c0-1.49-0.05-2.69-0.1-3.79h1.9l0.1,1.99h0.05c0.86-1.42,2.23-2.26,4.13-2.26
			c2.81,0,4.92,2.38,4.92,5.9c0,4.18-2.54,6.24-5.28,6.24c-1.54,0-2.88-0.67-3.58-1.82h-0.05v6.31h-2.09V465.46z M1068.67,468.56
			c0,0.31,0.05,0.6,0.1,0.86c0.38,1.46,1.66,2.47,3.17,2.47c2.23,0,3.53-1.82,3.53-4.49c0-2.33-1.22-4.32-3.46-4.32
			c-1.44,0-2.78,1.03-3.19,2.62c-0.07,0.26-0.14,0.58-0.14,0.86V468.56z"/>
		<path class="st2" d="M1081.41,467.86c0.05,2.86,1.87,4.03,3.98,4.03c1.51,0,2.42-0.26,3.22-0.6l0.36,1.51
			c-0.74,0.34-2.02,0.72-3.86,0.72c-3.58,0-5.71-2.35-5.71-5.86s2.06-6.26,5.45-6.26c3.79,0,4.8,3.34,4.8,5.47
			c0,0.43-0.05,0.77-0.07,0.98H1081.41z M1087.61,466.35c0.02-1.34-0.55-3.43-2.93-3.43c-2.14,0-3.07,1.97-3.24,3.43H1087.61z"/>
		<path class="st2" d="M1100.01,461.67v1.68h-3.62v9.94h-2.09v-9.94h-3.63v-1.68H1100.01z"/>
		<path class="st2" d="M1103.9,461.67v3.94c0.48-0.1,1.3-0.12,1.92-0.12c2.62,0,5.38,0.82,5.38,3.91c0,1.2-0.48,2.04-1.22,2.66
			c-1.27,1.08-3.34,1.34-5.04,1.34c-1.18,0-2.26-0.07-3.12-0.17v-11.57H1103.9z M1103.9,471.82c0.41,0.05,0.86,0.1,1.56,0.1
			c1.58,0,3.62-0.53,3.62-2.47c0-2.02-2.11-2.45-3.67-2.45c-0.55,0-1.03,0.05-1.51,0.12V471.82z"/>
		<path class="st2" d="M938.52,488.67v4.9c0,1.85-0.02,3-0.12,4.66l0.07,0.02c0.7-1.42,1.1-2.23,1.87-3.58l3.62-6h2.47v11.62h-2.02
			v-4.92c0-1.9,0.05-2.88,0.14-4.75h-0.07c-0.74,1.49-1.25,2.42-1.92,3.6c-1.1,1.8-2.38,4.03-3.63,6.07h-2.42v-11.62H938.52z"/>
		<path class="st2" d="M965.47,494.38c0,4.3-2.98,6.17-5.78,6.17c-3.14,0-5.57-2.3-5.57-5.98c0-3.89,2.54-6.17,5.76-6.17
			C963.21,488.4,965.47,490.83,965.47,494.38z M956.25,494.5c0,2.54,1.46,4.46,3.53,4.46c2.02,0,3.53-1.9,3.53-4.51
			c0-1.97-0.98-4.46-3.48-4.46C957.33,489.99,956.25,492.29,956.25,494.5z"/>
		<path class="st2" d="M977.69,488.67v11.62h-2.11v-9.94h-5.4v9.94h-2.09v-11.62H977.69z"/>
		<path class="st2" d="M981.79,488.67l2.54,6.87c0.26,0.77,0.55,1.68,0.74,2.38h0.05c0.22-0.7,0.46-1.58,0.74-2.42l2.3-6.82h2.23
			l-3.17,8.28c-1.51,3.98-2.54,6.02-3.98,7.27c-1.03,0.91-2.06,1.27-2.59,1.37l-0.53-1.78c0.53-0.17,1.22-0.5,1.85-1.03
			c0.58-0.46,1.3-1.27,1.78-2.35c0.1-0.22,0.17-0.38,0.17-0.5c0-0.12-0.05-0.29-0.14-0.55l-4.3-10.71H981.79z"/>
		<path class="st2" d="M1001.3,484.73c-0.6,0.22-1.66,0.41-2.42,0.53c-1.87,0.29-3.24,0.91-4.13,2.18
			c-0.74,1.06-1.18,2.62-1.27,3.84h0.07c0.74-1.68,2.38-2.62,4.03-2.62c2.86,0,4.94,2.04,4.94,5.74c0,3.79-1.97,6.14-5.38,6.14
			c-4.08,0-5.42-3.91-5.42-7.78c0-2.64,0.55-4.8,1.8-6.43c1.13-1.61,2.74-2.35,4.99-2.74c0.94-0.14,2.09-0.34,2.88-0.62
			L1001.3,484.73z M997.15,490.23c-1.25,0-2.14,0.65-2.62,1.58c-0.38,0.7-0.58,1.54-0.58,2.47c0,1.92,0.94,4.68,3.24,4.68
			c2.33,0,3.19-2.26,3.19-4.39C1000.39,492.68,999.65,490.23,997.15,490.23z"/>
		<path class="st2" d="M1014,488.67v11.62h-2.09v-9.96h-3.98v3.02c0,3.26-0.31,5.45-1.82,6.43c-0.58,0.46-1.22,0.72-2.3,0.72
			l-0.22-1.66c0.41-0.07,0.86-0.24,1.15-0.48c1.08-0.79,1.2-2.42,1.2-5.02v-4.68H1014z"/>
		<path class="st2" d="M1019.4,488.67v4.9c0,1.85-0.02,3-0.12,4.66l0.07,0.02c0.7-1.42,1.1-2.23,1.87-3.58l3.62-6h2.47v11.62h-2.02
			v-4.92c0-1.9,0.05-2.88,0.14-4.75h-0.07c-0.74,1.49-1.25,2.42-1.92,3.6c-1.1,1.8-2.38,4.03-3.63,6.07h-2.42v-11.62H1019.4z"/>
		<path class="st2" d="M1032.84,488.67v5.04h0.5l4.37-5.04h2.57l-5.06,5.26c1.87,0.19,3,1.44,3.91,3.53
			c0.31,0.77,0.72,1.9,1.25,2.83h-2.21c-0.31-0.5-0.72-1.42-1.08-2.38c-0.79-1.87-1.87-2.74-3.84-2.74h-0.41v5.11h-2.09v-11.62
			H1032.84z"/>
		<path class="st2" d="M1052.61,494.38c0,4.3-2.98,6.17-5.78,6.17c-3.14,0-5.57-2.3-5.57-5.98c0-3.89,2.54-6.17,5.76-6.17
			C1050.36,488.4,1052.61,490.83,1052.61,494.38z M1043.4,494.5c0,2.54,1.46,4.46,3.53,4.46c2.02,0,3.53-1.9,3.53-4.51
			c0-1.97-0.98-4.46-3.48-4.46C1044.48,489.99,1043.4,492.29,1043.4,494.5z"/>
		<path class="st2" d="M1055.23,488.81c0.82-0.14,2.33-0.26,3.7-0.26c1.94,0,5.16,0.31,5.16,2.9c0,1.44-1.1,2.33-2.42,2.62v0.05
			c1.7,0.24,2.95,1.2,2.95,2.88c0,3.05-3.84,3.43-6.12,3.43c-1.3,0-2.64-0.1-3.26-0.14V488.81z M1057.22,498.89
			c0.6,0.07,1.03,0.1,1.7,0.1c1.42,0,3.53-0.34,3.53-2.02c0-1.68-1.68-2.04-3.7-2.04h-1.54V498.89z M1057.25,493.54h1.58
			c1.56,0,3.17-0.46,3.17-1.82c0-1.15-1.01-1.7-3.12-1.7c-0.7,0-1.13,0.05-1.63,0.1V493.54z"/>
		<path class="st2" d="M1073.71,500.29l-0.17-1.46h-0.07c-0.65,0.91-1.9,1.73-3.55,1.73c-2.35,0-3.55-1.66-3.55-3.34
			c0-2.81,2.5-4.34,6.98-4.32v-0.24c0-0.96-0.26-2.69-2.64-2.69c-1.08,0-2.21,0.34-3.02,0.86l-0.48-1.39
			c0.96-0.62,2.35-1.03,3.82-1.03c3.55,0,4.42,2.42,4.42,4.75v4.34c0,1.01,0.05,1.99,0.19,2.78H1073.71z M1073.4,494.36
			c-2.3-0.05-4.92,0.36-4.92,2.62c0,1.37,0.91,2.02,1.99,2.02c1.51,0,2.47-0.96,2.81-1.94c0.07-0.22,0.12-0.46,0.12-0.67V494.36z"/>
		<path class="st2" d="M1086.52,488.67v1.68h-3.62v9.94h-2.09v-9.94h-3.63v-1.68H1086.52z"/>
		<path class="st2" d="M1090.41,488.67v3.94c0.48-0.1,1.3-0.12,1.92-0.12c2.62,0,5.38,0.82,5.38,3.91c0,1.2-0.48,2.04-1.22,2.66
			c-1.27,1.08-3.34,1.34-5.04,1.34c-1.18,0-2.26-0.07-3.12-0.17v-11.57H1090.41z M1090.41,498.82c0.41,0.05,0.86,0.1,1.56,0.1
			c1.58,0,3.62-0.53,3.62-2.47c0-2.02-2.11-2.45-3.67-2.45c-0.55,0-1.03,0.05-1.51,0.12V498.82z"/>
		<path class="st2" d="M968.1,519.46c0-1.49-0.05-2.69-0.1-3.79h1.9l0.1,1.99h0.05c0.86-1.42,2.23-2.26,4.13-2.26
			c2.81,0,4.92,2.38,4.92,5.9c0,4.18-2.54,6.24-5.28,6.24c-1.54,0-2.88-0.67-3.58-1.82h-0.05v6.31h-2.09V519.46z M970.19,522.56
			c0,0.31,0.05,0.6,0.1,0.86c0.38,1.46,1.66,2.47,3.17,2.47c2.23,0,3.53-1.82,3.53-4.49c0-2.33-1.22-4.32-3.46-4.32
			c-1.44,0-2.78,1.03-3.19,2.62c-0.07,0.26-0.14,0.58-0.14,0.86V522.56z"/>
		<path class="st2" d="M982.93,521.86c0.05,2.86,1.87,4.03,3.98,4.03c1.51,0,2.42-0.26,3.22-0.6l0.36,1.51
			c-0.74,0.34-2.02,0.72-3.86,0.72c-3.58,0-5.71-2.35-5.71-5.86s2.06-6.26,5.45-6.26c3.79,0,4.8,3.34,4.8,5.47
			c0,0.43-0.05,0.77-0.07,0.98H982.93z M989.12,520.35c0.02-1.34-0.55-3.43-2.93-3.43c-2.14,0-3.07,1.97-3.24,3.43H989.12z"/>
		<path class="st2" d="M994.81,520.54h1.01c1.78,0,2.98-0.82,2.98-1.9c0-1.03-0.94-1.68-2.26-1.68c-0.94,0-1.99,0.31-2.81,0.82
			l-0.53-1.3c1.18-0.72,2.52-1.06,3.86-1.06c1.78,0,3.94,0.79,3.94,3.05c0,1.44-1.32,2.38-2.62,2.64v0.05
			c1.73,0.14,3.17,1.2,3.17,2.9c0,2.52-2.57,3.46-5.02,3.46c-1.37,0-2.74-0.36-3.77-0.94l0.55-1.42c0.84,0.46,1.97,0.79,3.07,0.79
			c1.75,0,2.86-0.84,2.86-1.99c0-1.56-1.63-1.99-3.38-1.99h-1.06V520.54z"/>
		<path class="st2" d="M1004.7,515.67l2.54,6.87c0.26,0.77,0.55,1.68,0.74,2.38h0.05c0.22-0.7,0.46-1.58,0.74-2.42l2.3-6.82h2.23
			l-3.17,8.28c-1.51,3.98-2.54,6.02-3.98,7.27c-1.03,0.91-2.06,1.27-2.59,1.37l-0.53-1.78c0.53-0.17,1.22-0.5,1.85-1.03
			c0.58-0.46,1.3-1.27,1.78-2.35c0.1-0.22,0.17-0.38,0.17-0.5c0-0.12-0.05-0.29-0.14-0.55l-4.3-10.71H1004.7z"/>
		<path class="st2" d="M1023.85,515.67v11.62h-2.09v-9.96h-3.98v3.02c0,3.26-0.31,5.45-1.82,6.43c-0.58,0.46-1.22,0.72-2.3,0.72
			l-0.22-1.66c0.41-0.07,0.86-0.24,1.15-0.48c1.08-0.79,1.2-2.42,1.2-5.02v-4.68H1023.85z"/>
		<path class="st2" d="M1029.34,515.67v3.94c0.48-0.1,1.3-0.12,1.92-0.12c2.62,0,5.38,0.82,5.38,3.91c0,1.2-0.48,2.04-1.22,2.66
			c-1.27,1.08-3.34,1.34-5.04,1.34c-1.18,0-2.26-0.07-3.12-0.17v-11.57H1029.34z M1029.34,525.82c0.41,0.05,0.86,0.1,1.56,0.1
			c1.58,0,3.62-0.53,3.62-2.47c0-2.02-2.11-2.45-3.67-2.45c-0.55,0-1.03,0.05-1.51,0.12V525.82z"/>
		<path class="st2" d="M1045.86,515.67v1.68h-3.62v9.94h-2.09v-9.94h-3.63v-1.68H1045.86z"/>
		<path class="st2" d="M1053.97,527.29l-0.17-1.46h-0.07c-0.65,0.91-1.9,1.73-3.55,1.73c-2.35,0-3.55-1.66-3.55-3.34
			c0-2.81,2.5-4.34,6.98-4.32v-0.24c0-0.96-0.26-2.69-2.64-2.69c-1.08,0-2.21,0.34-3.02,0.86l-0.48-1.39
			c0.96-0.62,2.35-1.03,3.82-1.03c3.55,0,4.42,2.42,4.42,4.75v4.34c0,1.01,0.05,1.99,0.19,2.78H1053.97z M1053.66,521.36
			c-2.3-0.05-4.92,0.36-4.92,2.62c0,1.37,0.91,2.02,1.99,2.02c1.51,0,2.47-0.96,2.81-1.94c0.07-0.22,0.12-0.46,0.12-0.67V521.36z"/>
		<path class="st2" d="M1066.79,515.67v1.68h-3.62v9.94h-2.09v-9.94h-3.63v-1.68H1066.79z"/>
	</g>
	<line class="st1" x1="1020.5" y1="622" x2="1020.5" y2="545"/>
	<line class="st1" x1="1020.5" y1="624.5" x2="995.38" y2="599.38"/>
	<line class="st1" x1="1020.38" y1="624.5" x2="1045.5" y2="599.38"/>
</g>
</svg>
