<?xml version="1.0" encoding="utf-8"?>
<!-- Generator: Adobe Illustrator 24.0.2, SVG Export Plug-In . SVG Version: 6.00 Build 0)  -->
<svg version="1.0" xmlns="http://www.w3.org/2000/svg" xmlns:xlink="http://www.w3.org/1999/xlink" x="0px" y="0px"
	 viewBox="0 0 1140 700" style="enable-background:new 0 0 1140 700;" xml:space="preserve">
<style type="text/css">
	.st0{opacity:0.7;}
	.st1{fill:#FCEE21;}
	.st2{fill:none;stroke:#FCEE21;stroke-width:2;stroke-miterlimit:10;}
</style>
<g id="Layer_3">
	<path class="st0" d="M1140,700H0V0h1140V700z M687,225H446v340h241V225z"/>
</g>
<g id="Layer_2">
	<g>
		<path class="st1" d="M355.35,56.42v8.46h9.78v-8.46h2.64v20.22h-2.64v-9.48h-9.78v9.48h-2.61V56.42H355.35z"/>
		<path class="st1" d="M380.25,76.64l-0.21-1.83h-0.09c-0.81,1.14-2.37,2.16-4.44,2.16c-2.94,0-4.44-2.07-4.44-4.17
			c0-3.51,3.12-5.43,8.73-5.4v-0.3c0-1.2-0.33-3.36-3.3-3.36c-1.35,0-2.76,0.42-3.78,1.08l-0.6-1.74c1.2-0.78,2.94-1.29,4.77-1.29
			c4.44,0,5.52,3.03,5.52,5.94v5.43c0,1.26,0.06,2.49,0.24,3.48H380.25z M379.86,69.23c-2.88-0.06-6.15,0.45-6.15,3.27
			c0,1.71,1.14,2.52,2.49,2.52c1.89,0,3.09-1.2,3.51-2.43c0.09-0.27,0.15-0.57,0.15-0.84V69.23z"/>
		<path class="st1" d="M387.9,62.12l4.8,6.33h0.54v-6.33h2.52v6.33h0.51l4.8-6.33h3.03l-5.73,6.6c2.19,0.24,3.48,1.53,4.35,3.84
			c0.51,1.41,0.99,2.94,1.59,4.08h-2.64c-0.48-0.87-0.9-2.07-1.32-3.33c-0.9-2.37-2.25-3.09-4.14-3.09h-0.45v6.42h-2.52v-6.42h-0.48
			c-2.04,0-3.27,0.75-4.17,3.12c-0.48,1.26-0.87,2.4-1.38,3.3h-2.55c0.6-1.17,1.08-2.7,1.59-4.05c0.9-2.34,2.19-3.63,4.38-3.87
			l-5.76-6.6H387.9z"/>
		<path class="st1" d="M406.83,62.12h3.24l2.64,7.32c0.36,1.08,0.99,2.85,1.32,3.99h0.06c0.33-1.08,1.14-3.39,1.71-4.98l2.34-6.33
			h3.27l1.02,14.52h-2.52l-0.33-6.93c-0.09-1.56-0.21-3.42-0.27-5.19h-0.09c-0.39,1.32-0.78,2.49-1.59,4.71l-2.79,7.32h-1.92
			l-2.58-7.17c-0.45-1.38-1.08-3.48-1.44-4.83h-0.12c-0.06,1.71-0.15,3.63-0.24,5.22l-0.36,6.87h-2.43L406.83,62.12z"/>
		<path class="st1" d="M428.28,62.12v6.12c0,2.31-0.03,3.75-0.15,5.82l0.09,0.03c0.87-1.77,1.38-2.79,2.34-4.47l4.53-7.5h3.09v14.52
			h-2.52v-6.15c0-2.37,0.06-3.6,0.18-5.94h-0.09c-0.93,1.86-1.56,3.03-2.4,4.5c-1.38,2.25-2.97,5.04-4.53,7.59h-3.03V62.12H428.28z"
			/>
		<path class="st1" d="M452.19,62.12v2.1h-4.53v12.42h-2.61V64.22h-4.53v-2.1H452.19z"/>
		<path class="st1" d="M455.58,69.86c0.06,3.57,2.34,5.04,4.98,5.04c1.89,0,3.03-0.33,4.02-0.75l0.45,1.89
			c-0.93,0.42-2.52,0.9-4.83,0.9c-4.47,0-7.14-2.94-7.14-7.32s2.58-7.83,6.81-7.83c4.74,0,6,4.17,6,6.84c0,0.54-0.06,0.96-0.09,1.23
			H455.58z M463.31,67.97c0.03-1.68-0.69-4.29-3.66-4.29c-2.67,0-3.84,2.46-4.05,4.29H463.31z"/>
		<path class="st1" d="M467.43,80.33c0.66-1.77,1.47-4.98,1.8-7.17l2.94-0.3c-0.69,2.55-2.01,5.88-2.85,7.29L467.43,80.33z"/>
		<path class="st1" d="M484.1,62.12v4.77c0,1.83,0.69,3.09,3,3.09c1.14,0,2.31-0.42,3.12-1.02v-6.84h2.61v14.52h-2.61v-5.82h-0.06
			c-0.99,0.66-2.55,1.11-3.93,1.11c-2.76,0-4.77-1.41-4.77-4.74v-5.07H484.1z"/>
		<path class="st1" d="M506.87,62.12v2.1h-4.53v12.42h-2.61V64.22h-4.53v-2.1H506.87z"/>
		<path class="st1" d="M521.93,69.26c0,5.37-3.72,7.71-7.23,7.71c-3.93,0-6.96-2.88-6.96-7.47c0-4.86,3.18-7.71,7.2-7.71
			C519.11,61.79,521.93,64.82,521.93,69.26z M510.42,69.41c0,3.18,1.83,5.58,4.41,5.58c2.52,0,4.41-2.37,4.41-5.64
			c0-2.46-1.23-5.58-4.35-5.58C511.76,63.77,510.42,66.65,510.42,69.41z"/>
		<path class="st1" d="M536.24,57.2c-0.75,0.27-2.07,0.51-3.03,0.66c-2.34,0.36-4.05,1.14-5.16,2.73c-0.93,1.32-1.47,3.27-1.59,4.8
			h0.09c0.93-2.1,2.97-3.27,5.04-3.27c3.57,0,6.18,2.55,6.18,7.17c0,4.74-2.46,7.68-6.72,7.68c-5.1,0-6.78-4.89-6.78-9.72
			c0-3.3,0.69-6,2.25-8.04c1.41-2.01,3.42-2.94,6.24-3.42c1.17-0.18,2.61-0.42,3.6-0.78L536.24,57.2z M531.06,64.07
			c-1.56,0-2.67,0.81-3.27,1.98c-0.48,0.87-0.72,1.92-0.72,3.09c0,2.4,1.17,5.85,4.05,5.85c2.91,0,3.99-2.82,3.99-5.49
			C535.1,67.13,534.17,64.07,531.06,64.07z"/>
		<path class="st1" d="M543.66,62.12v4.95c0.57-0.12,1.41-0.18,2.37-0.18c3.12,0,6.27,1.29,6.27,4.86c0,1.53-0.57,2.58-1.5,3.36
			c-1.59,1.35-3.93,1.68-5.85,1.68c-1.47,0-2.82-0.09-3.9-0.21V62.12H543.66z M543.66,74.81c0.51,0.06,1.08,0.12,1.83,0.12
			c2.01,0,4.2-0.84,4.2-3.09c0-2.34-2.1-3.06-4.08-3.06c-0.75,0-1.41,0.06-1.95,0.15V74.81z M556.73,62.12v14.52h-2.61V62.12H556.73
			z"/>
		<path class="st1" d="M568.61,68.21h1.26c2.22,0,3.72-1.02,3.72-2.37c0-1.29-1.17-2.1-2.82-2.1c-1.17,0-2.49,0.39-3.51,1.02
			l-0.66-1.62c1.47-0.9,3.15-1.32,4.83-1.32c2.22,0,4.92,0.99,4.92,3.81c0,1.8-1.65,2.97-3.27,3.3v0.06
			c2.16,0.18,3.96,1.5,3.96,3.63c0,3.15-3.21,4.32-6.27,4.32c-1.71,0-3.42-0.45-4.71-1.17l0.69-1.77c1.05,0.57,2.46,0.99,3.84,0.99
			c2.19,0,3.57-1.05,3.57-2.49c0-1.95-2.04-2.49-4.23-2.49h-1.32V68.21z"/>
		<path class="st1" d="M588.38,76.64l-0.21-1.83h-0.09c-0.81,1.14-2.37,2.16-4.44,2.16c-2.94,0-4.44-2.07-4.44-4.17
			c0-3.51,3.12-5.43,8.73-5.4v-0.3c0-1.2-0.33-3.36-3.3-3.36c-1.35,0-2.76,0.42-3.78,1.08l-0.6-1.74c1.2-0.78,2.94-1.29,4.77-1.29
			c4.44,0,5.52,3.03,5.52,5.94v5.43c0,1.26,0.06,2.49,0.24,3.48H588.38z M587.99,69.23c-2.88-0.06-6.15,0.45-6.15,3.27
			c0,1.71,1.14,2.52,2.49,2.52c1.89,0,3.09-1.2,3.51-2.43c0.09-0.27,0.15-0.57,0.15-0.84V69.23z"/>
		<path class="st1" d="M603.65,62.12v2.13h-6.3v12.39h-2.61V62.12H603.65z"/>
		<path class="st1" d="M606.14,66.86c0-1.86-0.06-3.36-0.12-4.74h2.37l0.12,2.49h0.06c1.08-1.77,2.79-2.82,5.16-2.82
			c3.51,0,6.15,2.97,6.15,7.38c0,5.22-3.18,7.8-6.6,7.8c-1.92,0-3.6-0.84-4.47-2.28h-0.06v7.89h-2.61V66.86z M608.75,70.73
			c0,0.39,0.06,0.75,0.12,1.08c0.48,1.83,2.07,3.09,3.96,3.09c2.79,0,4.41-2.28,4.41-5.61c0-2.91-1.53-5.4-4.32-5.4
			c-1.8,0-3.48,1.29-3.99,3.27c-0.09,0.33-0.18,0.72-0.18,1.08V70.73z"/>
		<path class="st1" d="M623.87,62.12l3.18,8.58c0.33,0.96,0.69,2.1,0.93,2.97h0.06c0.27-0.87,0.57-1.98,0.93-3.03l2.88-8.52h2.79
			l-3.96,10.35c-1.89,4.98-3.18,7.53-4.98,9.09c-1.29,1.14-2.58,1.59-3.24,1.71l-0.66-2.22c0.66-0.21,1.53-0.63,2.31-1.29
			c0.72-0.57,1.62-1.59,2.22-2.94c0.12-0.27,0.21-0.48,0.21-0.63c0-0.15-0.06-0.36-0.18-0.69l-5.37-13.38H623.87z"/>
		<path class="st1" d="M638.39,68.21h1.26c2.22,0,3.72-1.02,3.72-2.37c0-1.29-1.17-2.1-2.82-2.1c-1.17,0-2.49,0.39-3.51,1.02
			l-0.66-1.62c1.47-0.9,3.15-1.32,4.83-1.32c2.22,0,4.92,0.99,4.92,3.81c0,1.8-1.65,2.97-3.27,3.3v0.06
			c2.16,0.18,3.96,1.5,3.96,3.63c0,3.15-3.21,4.32-6.27,4.32c-1.71,0-3.42-0.45-4.71-1.17l0.69-1.77c1.05,0.57,2.46,0.99,3.84,0.99
			c2.19,0,3.57-1.05,3.57-2.49c0-1.95-2.04-2.49-4.23-2.49h-1.32V68.21z"/>
		<path class="st1" d="M652.55,62.12v6.12c0,2.31-0.03,3.75-0.15,5.82l0.09,0.03c0.87-1.77,1.38-2.79,2.34-4.47l4.53-7.5h3.09v14.52
			h-2.52v-6.15c0-2.37,0.06-3.6,0.18-5.94h-0.09c-0.93,1.86-1.56,3.03-2.4,4.5c-1.38,2.25-2.97,5.04-4.53,7.59h-3.03V62.12H652.55z"
			/>
		<path class="st1" d="M676.46,62.12v2.1h-4.53v12.42h-2.61V64.22h-4.53v-2.1H676.46z"/>
		<path class="st1" d="M681.32,62.12v4.92c0.6-0.12,1.62-0.15,2.4-0.15c3.27,0,6.72,1.02,6.72,4.89c0,1.5-0.6,2.55-1.53,3.33
			c-1.59,1.35-4.17,1.68-6.3,1.68c-1.47,0-2.82-0.09-3.9-0.21V62.12H681.32z M681.32,74.81c0.51,0.06,1.08,0.12,1.95,0.12
			c1.98,0,4.53-0.66,4.53-3.09c0-2.52-2.64-3.06-4.59-3.06c-0.69,0-1.29,0.06-1.89,0.15V74.81z"/>
		<path class="st1" d="M708.71,55.34v6.51c4.23,0.3,7.29,2.97,7.29,7.5c0,4.77-3.24,7.29-7.29,7.56v5.67h-2.4v-5.64
			c-4.2-0.27-7.29-2.91-7.29-7.44c0-4.8,3.21-7.32,7.29-7.65v-6.51H708.71z M706.31,63.65c-2.94,0.39-4.68,2.79-4.68,5.76
			c0,3,1.8,5.34,4.68,5.7V63.65z M708.71,75.11c2.91-0.39,4.68-2.79,4.68-5.76c0-3-1.77-5.28-4.68-5.7V75.11z"/>
		<path class="st1" d="M732.44,69.26c0,5.37-3.72,7.71-7.23,7.71c-3.93,0-6.96-2.88-6.96-7.47c0-4.86,3.18-7.71,7.2-7.71
			C729.62,61.79,732.44,64.82,732.44,69.26z M720.92,69.41c0,3.18,1.83,5.58,4.41,5.58c2.52,0,4.41-2.37,4.41-5.64
			c0-2.46-1.23-5.58-4.35-5.58S720.92,66.65,720.92,69.41z"/>
		<path class="st1" d="M745.34,62.12v2.1h-4.53v12.42h-2.61V64.22h-4.53v-2.1H745.34z"/>
		<path class="st1" d="M760.4,69.26c0,5.37-3.72,7.71-7.23,7.71c-3.93,0-6.96-2.88-6.96-7.47c0-4.86,3.18-7.71,7.2-7.71
			C757.58,61.79,760.4,64.82,760.4,69.26z M748.88,69.41c0,3.18,1.83,5.58,4.41,5.58c2.52,0,4.41-2.37,4.41-5.64
			c0-2.46-1.23-5.58-4.35-5.58C750.23,63.77,748.88,66.65,748.88,69.41z"/>
	</g>
	<line class="st2" x1="812.5" y1="109" x2="812.5" y2="350"/>
	<path class="st2" d="M812.5,109.5c0-22.11-17.89-40-40-40"/>
	<path class="st2" d="M772.5,388.5c22.11,0,40-17.89,40-40"/>
	<line class="st2" x1="699" y1="388.5" x2="773" y2="388.5"/>
	<line class="st2" x1="698.5" y1="388.5" x2="723.62" y2="363.38"/>
	<line class="st2" x1="698.5" y1="388.38" x2="723.62" y2="413.5"/>
</g>
</svg>
